:version 1.10
:name ASF
:units
  mass 1
  length 1
  angle deg
:documentation
  ASF file generated by Kaydara
:root
  axis xyz
  order  tx ty tz rx ry rz
  position 0 0 0
  orientation 0 0 0
:bonedata
  begin
    id 1
    name RightUpLegDummy
    direction -1 2.30186e-007 8.31532e-007
    length 4.04083
    axis 0 0 0 xyz
  end
  begin
    id 2
    name RightUpLeg
    direction -0.000919234 -0.999985 0.00544864
    length 17.4221
    axis -3.80308 -0.00076134 -0.0523649 xyz
    dof rx ry rz
  end
  begin
    id 3
    name RightLeg
    direction -0.000919271 -0.999984 -0.00555045
    length 17.1239
    axis 4.00314 0.0181274 -0.183583 xyz
    dof rx ry rz
  end
  begin
    id 4
    name RightFoot
    direction -2.57843e-005 -4.04509e-007 1
    length 6.72091
    axis 8.18909e-005 -0.122003 -0.403008 xyz
    dof rx ry rz
  end
  begin
    id 5
    name RightToes
    direction 0.00116825 -0.014069 0.9999
    length 3.85082
    axis 0.000514414 0.540638 -0.356797 xyz
    dof rx ry rz
  end
  begin
    id 6
    name SpineDummy
    direction 0.0168869 0.966876 -0.254689
    length 6.99894
    axis 0 0 0 xyz
  end
  begin
    id 7
    name Spine
    direction -0.0132008 0.999903 0.00446247
    length 11.1999
    axis -0.00148109 0.00725429 0.756411 xyz
    dof rx ry rz
  end
  begin
    id 8
    name Spine1
    direction 0 0 0
    length 0
    axis -0.000934958 0.0245693 1.46543 xyz
    dof rx ry rz
  end
  begin
    id 9
    name HEadDummy
    direction -0.0255732 0.999672 0.00128215
    length 3.43865
    axis -0.000934958 0.0245693 1.46543 xyz
  end
  begin
    id 10
    name HEad
    direction -0.0472656 0.980052 0.19304
    length 5.12695
    axis -0.000934954 0.0245693 1.46543 xyz
    dof rx ry rz
  end
  begin
    id 11
    name LeftShoulder1Dummy
    direction 0.953098 0.301717 -0.023914
    length 3.68488
    axis -0.000934958 0.0245693 1.46543 xyz
  end
  begin
    id 12
    name LeftShoulder1
    direction 0.962466 0.271167 0.0112566
    length 3.13809
    axis -0.000934958 0.0245693 1.46543 xyz
    dof rx ry rz
  end
  begin
    id 13
    name LeftArm
    direction 0.999943 0.00455037 -0.00961766
    length 11.3419
    axis -23.1648 0.685459 1.22814 xyz
    dof rx ry rz
  end
  begin
    id 14
    name LeftForeArm
    direction 0.999332 0.0131969 0.0340885
    length 8.70632
    axis -9.90633 0.618216 0.0826942 xyz
    dof rx ry rz
  end
  begin
    id 15
    name LeftHand
    direction 0.994373 -0.0366703 0.0993905
    length 5.32135
    axis 0.00675269 0.680415 0.445699 xyz
    dof rx ry rz
  end
  begin
    id 16
    name RightShoulderDummy
    direction -0.967298 0.252589 -0.0230903
    length 3.68488
    axis -0.000934958 0.0245693 1.46543 xyz
  end
  begin
    id 17
    name RightShoulder
    direction -0.975062 0.221602 0.0120823
    length 3.13809
    axis 0.216257 0.0246515 1.45863 xyz
    dof rx ry rz
  end
  begin
    id 18
    name RightArm
    direction -0.99886 -0.00851186 -0.0469687
    length 10.3947
    axis -23.196 0.23503 -0.532632 xyz
    dof rx ry rz
  end
  begin
    id 19
    name RightForeArm
    direction -0.99909 0.00114866 0.0426317
    length 8.68355
    axis -9.91764 -0.134943 0.610517 xyz
    dof rx ry rz
  end
  begin
    id 20
    name RightHand
    direction -0.992888 -0.0489538 0.10852
    length 5.28593
    axis -0.00275396 -0.197403 0.246414 xyz
    dof rx ry rz
  end
  begin
    id 21
    name LeftUpLegDummy
    direction 1 -2.30186e-007 -8.31532e-007
    length 4.04083
    axis 0 0 0 xyz
  end
  begin
    id 22
    name LeftUpLeg
    direction -0.000920097 -1 2.79241e-006
    length 17.4221
    axis -3.48782 0.00143434 -0.0532288 xyz
    dof rx ry rz
  end
  begin
    id 23
    name LeftLeg
    direction -0.000920097 -1 2.7912e-006
    length 17.1239
    axis 3.68162 -0.00806512 -0.0529896 xyz
    dof rx ry rz
  end
  begin
    id 24
    name LeftFoot
    direction -2.57845e-005 -3.987e-007 1
    length 6.72091
    axis 3.02372e-005 -0.00147829 -0.214229 xyz
    dof rx ry rz
  end
  begin
    id 25
    name LeftToes
    direction 0.00813577 -0.00488255 0.999955
    length 3.85048
    axis 3.89895e-005 -0.0014783 -0.214229 xyz
    dof rx ry rz
  end
:hierarchy
  begin
    root RightUpLegDummy SpineDummy LeftUpLegDummy
    RightUpLegDummy RightUpLeg
    RightUpLeg RightLeg
    RightLeg RightFoot
    RightFoot RightToes
    SpineDummy Spine
    Spine Spine1
    Spine1 HEadDummy LeftShoulder1Dummy RightShoulderDummy
    HEadDummy HEad
    LeftShoulder1Dummy LeftShoulder1
    LeftShoulder1 LeftArm
    LeftArm LeftForeArm
    LeftForeArm LeftHand
    RightShoulderDummy RightShoulder
    RightShoulder RightArm
    RightArm RightForeArm
    RightForeArm RightHand
    LeftUpLegDummy LeftUpLeg
    LeftUpLeg LeftLeg
    LeftLeg LeftFoot
    LeftFoot LeftToes
  end

:SAMPLES-PER-SECOND 30
:FULLY-SPECIFIED
:DEGREES
95
root  -35.4595 34.4334 2.69129 -170.221 71.3927 -177.703
RightUpLeg  -12.7409 -9.25097 -1.45106
RightLeg  15.6304 -0.33828 -0.0717754
RightFoot  1.58949 0.0127017 0.092712
RightToes  -26.1711 -0.118463 -0.226227
Spine  -2.50351 0.164412 -0.0409257
Spine1  -4.61221 0.28467 0.530629
HEad  -62.8123 -1.48723 5.17423
LeftShoulder1  -1.94126e-019 -3.10601e-018 -2.51263e-017
LeftArm  -31.653 40.4953 -81.0472
LeftForeArm  28.2278 -6.27114 -1.09304
LeftHand  -0.392667 0.251407 8.91688
RightShoulder  -4.96962e-017 0 -2.36833e-017
RightArm  -31.0283 -37.3837 72.8266
RightForeArm  65.9076 10.0065 1.53094
RightHand  -0.428106 1.04327 -7.84844
LeftUpLeg  -11.0956 8.03664 -2.99111
LeftLeg  18.0311 19.1077 4.7843
LeftFoot  -3.90449 -0.0476735 -1.23698
LeftToes  -10.3854 1.89912e-006 4.45198e-008
96
root  -35.452 34.4302 2.75059 -170.594 71.1348 -178.027
RightUpLeg  -12.8058 -9.3661 -1.45262
RightLeg  15.9372 -0.465783 -0.101459
RightFoot  1.39091 0.0129711 0.08768
RightToes  -26.2026 -0.118665 -0.22483
Spine  -2.48001 0.176946 0.00896339
Spine1  -4.5632 0.28835 0.629054
HEad  -62.5486 -2.18252 5.67873
LeftShoulder1  -1.94126e-019 -3.10601e-018 -2.51263e-017
LeftArm  -32.7139 40.3611 -81.1653
LeftForeArm  28.0306 -6.15609 -1.07241
LeftHand  -0.399842 0.36224 9.26957
RightShoulder  -4.96962e-017 0 -2.36833e-017
RightArm  -34.9866 -36.7548 72.5323
RightForeArm  67.3977 8.444 1.40576
RightHand  -0.422445 0.230958 -8.78892
LeftUpLeg  -11.0757 7.97135 -2.96298
LeftLeg  18.0294 18.9211 4.73888
LeftFoot  -3.78769 -0.0445044 -1.1843
LeftToes  -10.6525 1.89912e-006 4.45198e-008
97
root  -35.4429 34.4462 2.8178 -170.723 70.8748 -178.178
RightUpLeg  -12.7483 -9.49851 -1.36674
RightLeg  15.8324 -0.59354 -0.128027
RightFoot  1.35789 0.0135437 0.0825076
RightToes  -25.9612 -0.118123 -0.223198
Spine  -2.45216 0.184971 0.0401081
Spine1  -4.54746 0.274644 0.69831
HEad  -62.3103 -3.57192 5.97973
LeftShoulder1  -1.94126e-019 -3.10601e-018 -2.51263e-017
LeftArm  -34.2936 39.8994 -81.1765
LeftForeArm  27.0851 -6.58628 -1.14921
LeftHand  -0.390665 0.470097 9.24495
RightShoulder  -4.96962e-017 0 -2.36833e-017
RightArm  -37.4645 -35.0497 72.2734
RightForeArm  70.6232 6.23224 1.0258
RightHand  -0.408818 -0.585492 -9.86788
LeftUpLeg  -10.9813 8.04381 -2.88432
LeftLeg  17.6771 18.6553 4.55588
LeftFoot  -3.57965 -0.0392663 -1.09497
LeftToes  -10.7028 1.89912e-006 4.45198e-008
98
root  -35.4395 34.4803 2.87858 -171.063 70.6596 -178.539
RightUpLeg  -12.5474 -9.5747 -1.37242
RightLeg  15.4442 -0.728145 -0.151708
RightFoot  1.46218 0.0139573 0.0825709
RightToes  -25.7389 -0.117352 -0.221287
Spine  -2.44368 0.148036 0.01385
Spine1  -4.59661 0.212408 0.645337
HEad  -61.746 -4.98314 6.05799
LeftShoulder1  -1.94126e-019 -3.10601e-018 -2.51263e-017
LeftArm  -35.0581 39.3736 -81.1877
LeftForeArm  24.8749 -7.62654 -1.33403
LeftHand  -0.393971 0.495966 9.37025
RightShoulder  -4.96962e-017 0 -2.36833e-017
RightArm  -37.0524 -32.6855 72.1463
RightForeArm  75.0423 4.24809 0.667068
RightHand  -0.336111 -1.69507 -10.4025
LeftUpLeg  -10.7719 7.6957 -2.8749
LeftLeg  17.1286 18.7808 4.39944
LeftFoot  -3.10046 -0.0297333 -0.937065
LeftToes  -11.1995 1.89912e-006 4.45198e-008
99
root  -35.4276 34.5175 2.95746 -171.154 70.6358 -178.661
RightUpLeg  -12.3244 -9.47838 -1.27381
RightLeg  14.9173 -0.849798 -0.168722
RightFoot  1.61437 0.0143325 0.0849192
RightToes  -25.3583 -0.116399 -0.218446
Spine  -2.39138 0.212141 0.00719249
Spine1  -4.57573 0.369737 0.622857
HEad  -61.4455 -6.16217 6.02471
LeftShoulder1  -1.94126e-019 -3.10601e-018 -2.51263e-017
LeftArm  -35.2966 38.1986 -81.2366
LeftForeArm  24.503 -8.67314 -1.5201
LeftHand  -0.401383 0.43122 9.42834
RightShoulder  -4.96962e-017 0 -2.36833e-017
RightArm  -36.2364 -29.7659 72.2956
RightForeArm  79.026 2.77291 0.398446
RightHand  -0.300199 -2.09638 -10.3455
LeftUpLeg  -10.516 7.99305 -2.79375
LeftLeg  16.4352 18.5371 4.11351
LeftFoot  -2.70118 -0.0222878 -0.783752
LeftToes  -11.4097 1.89912e-006 4.45198e-008
100
root  -35.4225 34.5617 3.04137 -171.283 70.6677 -178.823
RightUpLeg  -12.0764 -9.47555 -1.17407
RightLeg  14.2654 -0.869613 -0.162205
RightFoot  1.91336 0.0146304 0.0888783
RightToes  -25.3423 -0.11531 -0.216965
Spine  -2.28643 0.301908 0.0156161
Spine1  -4.45505 0.596508 0.626636
HEad  -61.5169 -6.94697 5.87331
LeftShoulder1  -1.94126e-019 -3.10601e-018 -2.51263e-017
LeftArm  -34.4275 36.3685 -81.3034
LeftForeArm  24.8859 -9.66906 -1.69698
LeftHand  -0.406285 0.356845 9.40949
RightShoulder  -4.96962e-017 0 -2.36833e-017
RightArm  -33.8324 -26.9193 72.7782
RightForeArm  80.3438 3.01667 0.437906
RightHand  -0.287609 -2.09038 -9.87916
LeftUpLeg  -10.2151 7.93284 -2.72021
LeftLeg  15.6577 18.6665 3.88172
LeftFoot  -2.20377 -0.0149731 -0.616907
LeftToes  -11.6818 1.89912e-006 4.45198e-008
101
root  -35.4171 34.6193 3.12481 -171.381 70.6994 -178.941
RightUpLeg  -11.6467 -9.49675 -1.08015
RightLeg  13.2855 -0.806119 -0.135875
RightFoot  2.35518 0.0146982 0.0954058
RightToes  -25.2788 -0.11413 -0.216042
Spine  -2.1752 0.394837 0.0540146
Spine1  -4.31563 0.839018 0.694249
HEad  -61.5821 -7.1328 5.84744
LeftShoulder1  -1.94126e-019 -3.10601e-018 -2.51263e-017
LeftArm  -32.4585 34.1565 -81.3957
LeftForeArm  24.6577 -10.8041 -1.88448
LeftHand  -0.39598 0.487574 9.40282
RightShoulder  -4.96962e-017 0 -2.36833e-017
RightArm  -31.2372 -24.1907 73.2662
RightForeArm  79.6104 4.45608 0.691297
RightHand  -0.372924 -0.810052 -9.41579
LeftUpLeg  -9.77066 7.921 -2.63421
LeftLeg  14.6043 18.7632 3.54996
LeftFoot  -1.62266 -0.00817975 -0.416051
LeftToes  -11.8138 1.89912e-006 4.45198e-008
102
root  -35.3993 34.699 3.20606 -171.559 70.7224 -179.059
RightUpLeg  -10.8909 -9.59653 -0.994798
RightLeg  11.8552 -0.673643 -0.0959537
RightFoot  3.02021 0.0146497 0.101647
RightToes  -25.2329 -0.112905 -0.215495
Spine  -2.09127 0.476865 0.0605087
Spine1  -4.2151 1.04747 0.706874
HEad  -61.2758 -7.15319 5.81418
LeftShoulder1  -1.94126e-019 -3.10601e-018 -2.51263e-017
LeftArm  -30.7719 31.7815 -81.3381
LeftForeArm  24.0823 -12.0884 -2.07109
LeftHand  -0.381115 0.377193 8.8598
RightShoulder  -4.96962e-017 0 -2.36833e-017
RightArm  -27.4189 -21.9217 73.7442
RightForeArm  74.8067 7.2571 1.19681
RightHand  -0.432391 0.077231 -9.23297
LeftUpLeg  -9.05066 8.06098 -2.52374
LeftLeg  13.1475 18.7285 3.06252
LeftFoot  -0.784566 -0.00195138 -0.123471
LeftToes  -12.3818 1.89912e-006 4.45198e-008
